<svg width="101" height="26" viewBox="0 0 101 26" fill="none" xmlns="http://www.w3.org/2000/svg">
<path d="M23.0001 6V3L17.1101 8.89" stroke="#930D7A" stroke-width="2" stroke-linecap="round" stroke-linejoin="round"/>
<path d="M17.6001 19.89C19.257 19.89 20.6001 18.5469 20.6001 16.89C20.6001 15.2332 19.257 13.89 17.6001 13.89C15.9432 13.89 14.6001 15.2332 14.6001 16.89C14.6001 18.5469 15.9432 19.89 17.6001 19.89Z" stroke="#930D7A" stroke-width="2" stroke-linecap="round" stroke-linejoin="round"/>
<path d="M9.11011 11.4C10.767 11.4 12.1101 10.0569 12.1101 8.40002C12.1101 6.74317 10.767 5.40002 9.11011 5.40002C7.45325 5.40002 6.11011 6.74317 6.11011 8.40002C6.11011 10.0569 7.45325 11.4 9.11011 11.4Z" stroke="#930D7A" stroke-width="2" stroke-linecap="round" stroke-linejoin="round"/>
<path d="M13.3501 15.65C15.007 15.65 16.3501 14.3069 16.3501 12.65C16.3501 10.9932 15.007 9.65002 13.3501 9.65002C11.6932 9.65002 10.3501 10.9932 10.3501 12.65C10.3501 14.3069 11.6932 15.65 13.3501 15.65Z" stroke="#930D7A" stroke-width="2" stroke-linecap="round" stroke-linejoin="round"/>
<path d="M14.9099 9.84998C16.5668 9.84998 17.9099 8.50683 17.9099 6.84998C17.9099 5.19312 16.5668 3.84998 14.9099 3.84998C13.2531 3.84998 11.9099 5.19312 11.9099 6.84998C11.9099 8.50683 13.2531 9.84998 14.9099 9.84998Z" stroke="#930D7A" stroke-width="2" stroke-linecap="round" stroke-linejoin="round"/>
<path d="M19.1499 14.09C20.8068 14.09 22.1499 12.7468 22.1499 11.09C22.1499 9.43311 20.8068 8.08997 19.1499 8.08997C17.493 8.08997 16.1499 9.43311 16.1499 11.09C16.1499 12.7468 17.493 14.09 19.1499 14.09Z" stroke="#930D7A" stroke-width="2" stroke-linecap="round" stroke-linejoin="round"/>
<path d="M7.56006 17.2C9.21691 17.2 10.5601 15.8568 10.5601 14.2C10.5601 12.5431 9.21691 11.2 7.56006 11.2C5.9032 11.2 4.56006 12.5431 4.56006 14.2C4.56006 15.8568 5.9032 17.2 7.56006 17.2Z" stroke="#930D7A" stroke-width="2" stroke-linecap="round" stroke-linejoin="round"/>
<path d="M11.8 21.4399C13.4569 21.4399 14.8 20.0968 14.8 18.4399C14.8 16.7831 13.4569 15.4399 11.8 15.4399C10.1432 15.4399 8.80005 16.7831 8.80005 18.4399C8.80005 20.0968 10.1432 21.4399 11.8 21.4399Z" stroke="#930D7A" stroke-width="2" stroke-linecap="round" stroke-linejoin="round"/>
<path d="M6 23C7.65685 23 9 21.6569 9 20C9 18.3431 7.65685 17 6 17C4.34315 17 3 18.3431 3 20C3 21.6569 4.34315 23 6 23Z" stroke="#930D7A" stroke-width="2" stroke-linecap="round" stroke-linejoin="round"/>
<path d="M29.336 19L32.568 7.64H35.032L38.264 19H36.232L33.8 9.88L31.368 19H29.336ZM31.32 16.312L31.864 14.536H35.736L36.28 16.312H31.32ZM43.5698 19.192C42.7591 19.192 42.0498 19.0053 41.4418 18.632C40.8338 18.2587 40.3591 17.7413 40.0178 17.08C39.6764 16.408 39.5058 15.624 39.5058 14.728C39.5058 13.832 39.6764 13.0533 40.0178 12.392C40.3591 11.72 40.8338 11.1973 41.4418 10.824C42.0498 10.4507 42.7591 10.264 43.5698 10.264C44.2311 10.264 44.8231 10.392 45.3458 10.648C45.8791 10.904 46.3164 11.272 46.6578 11.752C47.0098 12.2213 47.2338 12.7813 47.3298 13.432L45.4258 13.544C45.3084 13.032 45.0898 12.6427 44.7698 12.376C44.4498 12.0987 44.0551 11.96 43.5858 11.96C42.9244 11.96 42.4071 12.2107 42.0338 12.712C41.6604 13.2027 41.4738 13.8747 41.4738 14.728C41.4738 15.5813 41.6604 16.2587 42.0338 16.76C42.4071 17.2507 42.9244 17.496 43.5858 17.496C44.0551 17.496 44.4551 17.352 44.7858 17.064C45.1271 16.776 45.3564 16.3547 45.4738 15.8L47.3778 15.912C47.2711 16.5733 47.0418 17.1493 46.6898 17.64C46.3484 18.1307 45.9058 18.5147 45.3618 18.792C44.8284 19.0587 44.2311 19.192 43.5698 19.192ZM51.8035 19.192C51.2702 19.192 50.7902 19.096 50.3635 18.904C49.9368 18.712 49.5955 18.44 49.3395 18.088C49.0835 17.7253 48.9555 17.2987 48.9555 16.808C48.9555 16.0827 49.1795 15.5227 49.6275 15.128C50.0862 14.7227 50.7422 14.4293 51.5955 14.248L54.2675 13.688C54.2675 13.0907 54.1395 12.6373 53.8835 12.328C53.6382 12.008 53.2488 11.848 52.7155 11.848C52.2248 11.848 51.8462 11.9653 51.5795 12.2C51.3128 12.4347 51.1368 12.744 51.0515 13.128L49.0835 13.016C49.2435 12.1947 49.6382 11.5333 50.2675 11.032C50.9075 10.52 51.7128 10.264 52.6835 10.264C53.8462 10.264 54.7155 10.5733 55.2915 11.192C55.8675 11.8107 56.1555 12.6747 56.1555 13.784V16.968C56.1555 17.1813 56.1982 17.3307 56.2835 17.416C56.3688 17.4907 56.4862 17.528 56.6355 17.528H57.0515V19C56.9875 19.0107 56.8808 19.0213 56.7315 19.032C56.5928 19.0533 56.4488 19.064 56.2995 19.064C55.8942 19.064 55.5475 18.9947 55.2595 18.856C54.9822 18.7173 54.7688 18.5093 54.6195 18.232C54.4702 17.944 54.3902 17.592 54.3795 17.176H54.6195C54.5662 17.56 54.4115 17.9067 54.1555 18.216C53.8995 18.5147 53.5688 18.7547 53.1635 18.936C52.7688 19.1067 52.3155 19.192 51.8035 19.192ZM52.1395 17.72C52.5982 17.72 52.9875 17.64 53.3075 17.48C53.6275 17.3093 53.8675 17.0747 54.0275 16.776C54.1875 16.4667 54.2675 16.0987 54.2675 15.672V15.096L52.1395 15.544C51.6808 15.6293 51.3608 15.768 51.1795 15.96C51.0088 16.1413 50.9235 16.3867 50.9235 16.696C50.9235 17.016 51.0302 17.2667 51.2435 17.448C51.4568 17.6293 51.7555 17.72 52.1395 17.72ZM62.1973 19V10.456H64.0853V19H62.1973ZM58.9333 19V17.464H66.8693V19H58.9333ZM59.0933 11.992V10.456H63.8133V11.992H59.0933ZM62.1173 9.32V7.528H64.0373V9.32H62.1173ZM71.007 19V16.744H73.343V19H71.007ZM81.8808 19.192C81.0808 19.192 80.4088 19.064 79.8648 18.808C79.3208 18.552 78.8994 18.2053 78.6008 17.768C78.3021 17.3307 78.1314 16.8453 78.0888 16.312L79.9768 16.232C80.0621 16.6373 80.2594 16.9627 80.5688 17.208C80.8781 17.4427 81.3208 17.56 81.8968 17.56C82.4301 17.56 82.8301 17.4907 83.0968 17.352C83.3741 17.2027 83.5128 16.984 83.5128 16.696C83.5128 16.5147 83.4648 16.36 83.3688 16.232C83.2834 16.104 83.1074 15.9973 82.8408 15.912C82.5741 15.816 82.1794 15.7147 81.6568 15.608C80.8034 15.4373 80.1314 15.24 79.6408 15.016C79.1501 14.792 78.7981 14.5093 78.5848 14.168C78.3821 13.8267 78.2808 13.4107 78.2808 12.92C78.2808 12.4187 78.4088 11.9707 78.6648 11.576C78.9208 11.1707 79.2994 10.8507 79.8008 10.616C80.3128 10.3813 80.9421 10.264 81.6888 10.264C82.4994 10.264 83.1608 10.3973 83.6728 10.664C84.1848 10.9307 84.5741 11.2773 84.8408 11.704C85.1181 12.1307 85.2888 12.5893 85.3528 13.08L83.4488 13.176C83.3954 12.9307 83.2941 12.712 83.1448 12.52C82.9954 12.328 82.7981 12.1787 82.5528 12.072C82.3074 11.9547 82.0248 11.896 81.7048 11.896C81.1821 11.896 80.8034 11.9973 80.5688 12.2C80.3341 12.4027 80.2168 12.6427 80.2168 12.92C80.2168 13.144 80.2754 13.3307 80.3928 13.48C80.5208 13.6187 80.7288 13.736 81.0168 13.832C81.3048 13.928 81.7048 14.024 82.2168 14.12C83.0594 14.28 83.7154 14.4667 84.1848 14.68C84.6541 14.8933 84.9794 15.16 85.1608 15.48C85.3528 15.8 85.4488 16.2 85.4488 16.68C85.4488 17.2027 85.3048 17.6507 85.0168 18.024C84.7288 18.3973 84.3181 18.6853 83.7848 18.888C83.2514 19.0907 82.6168 19.192 81.8808 19.192ZM87.9385 19V7.64H89.8265V12.296L89.6505 12.184C89.7785 11.736 89.9652 11.3733 90.2105 11.096C90.4665 10.808 90.7705 10.6 91.1225 10.472C91.4745 10.3333 91.8692 10.264 92.3065 10.264C92.8932 10.264 93.3838 10.3973 93.7785 10.664C94.1838 10.9307 94.4825 11.3093 94.6745 11.8C94.8772 12.28 94.9785 12.8453 94.9785 13.496V19H93.0905V13.928C93.0905 13.2027 92.9678 12.68 92.7225 12.36C92.4772 12.04 92.1198 11.88 91.6505 11.88C91.1065 11.88 90.6638 12.0613 90.3225 12.424C89.9918 12.7867 89.8265 13.32 89.8265 14.024V19H87.9385Z" fill="black"/>
</svg>
